<svg width="40" height="40" viewBox="0 0 40 40" fill="none" xmlns="http://www.w3.org/2000/svg">
<path d="M39.3971 24.8381C36.726 35.5525 25.8741 42.0731 15.1584 39.4012C4.44722 36.7301 -2.07335 25.8775 0.598971 15.1639C3.26894 4.44838 14.1209 -2.07268 24.8332 0.598468C35.5481 3.26961 42.0683 14.1234 39.3968 24.8383L39.397 24.8381H39.3971Z" fill="#F3BA2F"/>
<path fill-rule="evenodd" clip-rule="evenodd" d="M19.9992 12.6933L14.8203 17.8722L11.8072 14.8586L19.9992 6.66663L28.1939 14.8611L25.1805 17.8744L19.9992 12.6933ZM9.67872 16.9861L6.66528 20L9.67851 23.0128L12.6919 19.9993L9.67872 16.9861ZM14.8194 22.1281L19.9983 27.3066L25.1795 22.1256L28.1944 25.1373L28.1929 25.1389L19.9983 33.3333L11.802 25.137L14.8194 22.1281ZM30.3193 16.9878L27.3059 20.0012L30.3192 23.0145L33.3326 20.001L30.3193 16.9878Z" fill="white"/>
<path d="M23.0557 19.9984H23.057L19.9995 16.9407L17.7395 19.2L17.4799 19.4597L16.9445 19.9953L16.9402 19.9994L16.9445 20.0038L19.9995 23.0593L23.0572 20.0016L23.0587 19.9999L23.0559 19.9984" fill="white"/>
</svg>
