<svg width="40" height="40" viewBox="0 0 40 40" fill="none" xmlns="http://www.w3.org/2000/svg">
<g clip-path="url(#clip0_12140_1108)">
<path d="M20 40C31.0457 40 40 31.0457 40 20C40 8.9543 31.0457 0 20 0C8.9543 0 0 8.9543 0 20C0 31.0457 8.9543 40 20 40Z" fill="#627EEA"/>
<path d="M20.625 5V16.0875L29.9963 20.275L20.625 5Z" fill="white" fill-opacity="0.602"/>
<path d="M20.6225 5L11.25 20.275L20.6225 16.0875V5Z" fill="white"/>
<path d="M20.625 27.4615V34.9952L30.0025 22.0215L20.625 27.4615Z" fill="white" fill-opacity="0.602"/>
<path d="M20.6225 34.9952V27.4602L11.25 22.0215L20.6225 34.9952Z" fill="white"/>
<path d="M20.625 25.7151L29.9963 20.2739L20.625 16.0889V25.7151Z" fill="white" fill-opacity="0.2"/>
<path d="M11.25 20.2739L20.6225 25.7151V16.0889L11.25 20.2739Z" fill="white" fill-opacity="0.602"/>
</g>
<defs>
<clipPath id="clip0_12140_1108">
<rect width="40" height="40" fill="white"/>
</clipPath>
</defs>
</svg>
