<svg width="40" height="40" viewBox="0 0 40 40" fill="none" xmlns="http://www.w3.org/2000/svg">
<g clip-path="url(#clip0_12140_1020)">
<path d="M20.0093 0.411011H20.01C30.8058 0.411011 39.5575 9.16274 39.5575 19.9586V19.9593C39.5575 30.7551 30.8058 39.5069 20.01 39.5069H20.0093C9.2134 39.5069 0.46167 30.7551 0.46167 19.9593V19.9586C0.46167 9.16274 9.2134 0.411011 20.0093 0.411011Z" fill="#111111" stroke="#111111" stroke-width="0.720108"/>
<path d="M20.0099 0.0510254H20.0092C9.0145 0.0510254 0.101562 8.96396 0.101562 19.9587V19.9594C0.101562 30.9541 9.0145 39.8669 20.0092 39.8669H20.0099C31.0046 39.8669 39.9175 30.9541 39.9175 19.9594V19.9587C39.9175 8.96396 31.0046 0.0510254 20.0099 0.0510254Z" fill="url(#paint0_radial_12140_1020)" fill-opacity="0.7"/>
<path d="M20.0093 0.415649H20.0101C30.8033 0.415649 39.553 9.16534 39.553 19.9587V19.9594C39.553 30.7527 30.8033 39.5024 20.0101 39.5024H20.0093C9.21601 39.5024 0.466309 30.7527 0.466309 19.9594V19.9587C0.466309 9.16534 9.21601 0.415649 20.0093 0.415649Z" stroke="url(#paint1_linear_12140_1020)" stroke-width="0.729223"/>
<path fill-rule="evenodd" clip-rule="evenodd" d="M15.6535 10.7002H15.2293L14.9542 11.0232L7.85377 19.3632L7.34692 19.9586L7.85377 20.5539L14.9542 28.8939L15.2293 29.2169H15.6535H28.4367H29.3551V28.2986V22.9966H27.5184V27.3802H17.6618L23.5611 20.5593L24.0807 19.9586L23.5611 19.3577L17.6618 12.5369H27.5184V16.9205H29.3551V11.6186V10.7002H28.4367H15.6535ZM15.6589 13.0289L9.75916 19.9586L15.6589 26.8883L21.6523 19.9586L15.6589 13.0289Z" fill="white"/>
</g>
<defs>
<radialGradient id="paint0_radial_12140_1020" cx="0" cy="0" r="1" gradientUnits="userSpaceOnUse" gradientTransform="translate(20.0523 5.86467) rotate(90) scale(41.9747 29.5459)">
<stop offset="0.03125" stop-color="#3A3A3A"/>
<stop offset="1" stop-color="#1C1C1C"/>
</radialGradient>
<linearGradient id="paint1_linear_12140_1020" x1="20.0096" y1="-0.324587" x2="20.0096" y2="40.2427" gradientUnits="userSpaceOnUse">
<stop stop-color="white"/>
<stop offset="1" stop-color="#111111"/>
</linearGradient>
<clipPath id="clip0_12140_1020">
<rect width="40" height="40" fill="white"/>
</clipPath>
</defs>
</svg>
