<svg width="40" height="40" viewBox="0 0 40 40" fill="none" xmlns="http://www.w3.org/2000/svg">
<g clip-path="url(#clip0_12140_1101)">
<path d="M0 20C0 8.95431 8.95431 0 20 0C31.0457 0 40 8.95431 40 20C40 31.0457 31.0457 40 20 40C8.95431 40 0 31.0457 0 20Z" fill="white"/>
<path d="M34.7374 19.5091C34.7639 21.8909 34.2654 24.1669 33.2858 26.3414C31.8872 29.4378 28.5338 31.9696 25.4719 29.2746C22.9745 27.078 22.5113 22.6187 18.7697 21.9659C13.8192 21.3661 13.7001 27.1046 10.466 27.7528C6.86123 28.4851 5.66552 22.4246 5.71847 19.6723C5.77142 16.92 6.50384 13.0517 9.63649 13.0517C13.2412 13.0517 13.4839 18.5079 18.0594 18.2123C22.5907 17.9036 22.67 12.2269 25.6306 9.79655C28.1854 7.69701 31.19 9.23637 32.6946 11.7638C34.0889 14.1015 34.7021 16.845 34.733 19.5091H34.7374Z" fill="#0F1A1F"/>
</g>
<defs>
<clipPath id="clip0_12140_1101">
<rect width="40" height="40" fill="white"/>
</clipPath>
</defs>
</svg>
