<svg width="40" height="40" viewBox="0 0 40 40" fill="none" xmlns="http://www.w3.org/2000/svg">
<g clip-path="url(#clip0_12140_1025)">
<path d="M20 0C8.95385 0 0 8.95385 0 20C0 31.0462 8.95385 40 20 40C31.0462 40 40 31.0462 40 20C40 8.95385 31.0462 0 20 0Z" fill="#00B78B"/>
<path d="M20 0.5C30.77 0.5 39.5 9.22999 39.5 20C39.5 30.77 30.77 39.5 20 39.5C9.22999 39.5 0.5 30.77 0.5 20C0.5 9.22999 9.22999 0.5 20 0.5Z" stroke="white" stroke-opacity="0.3"/>
<path fill-rule="evenodd" clip-rule="evenodd" d="M16.8615 3.83813C9.27647 5.29872 3.54492 11.9771 3.54492 19.9852C3.54492 27.9933 9.27647 34.6717 16.8615 36.1323V34.5911C10.1125 33.1506 5.05588 27.1572 5.05588 19.9852C5.05588 12.8132 10.1125 6.81975 16.8615 5.37931V3.83813ZM23.147 5.38938V3.84821C30.722 5.31887 36.4334 11.9872 36.4334 19.9852C36.4334 27.9832 30.722 34.6515 23.147 36.1222V34.581C29.8758 33.1305 34.9224 27.1471 34.9224 19.9852C34.9224 12.8233 29.8758 6.8399 23.147 5.38938Z" fill="white"/>
<path d="M22.3328 19.4413C23.592 19.6831 24.559 20.1464 25.254 20.8213C25.9491 21.4862 26.2915 22.3424 26.2915 23.3799V25.0218C26.2915 26.2708 25.8383 27.2781 24.9418 28.0437C24.0453 28.7992 22.8566 29.1719 21.396 29.1719H20.8924V31.7808H19.1598V29.1719H18.626C17.6589 29.1719 16.8128 28.9603 16.0674 28.5272C15.3321 28.084 14.7478 27.4695 14.3349 26.6838C13.9319 25.878 13.7305 24.9613 13.7305 23.9138H15.463C15.463 24.9714 15.7551 25.8377 16.3293 26.5025C16.9236 27.1472 17.7093 27.4796 18.6663 27.4796H21.3457C22.2925 27.4796 23.0581 27.258 23.6423 26.8148C24.2165 26.3514 24.5086 25.7571 24.5086 25.0218V23.3799C24.5086 22.7956 24.287 22.3021 23.8539 21.8891C23.4308 21.4761 22.8566 21.2142 22.1213 21.0933L17.7798 20.3278C16.561 20.1061 15.6041 19.6428 14.9292 18.9477C14.2543 18.2426 13.9118 17.3663 13.9118 16.3086V14.9286C13.9118 13.6796 14.3449 12.6924 15.2112 11.9571C16.0976 11.2016 17.2661 10.8289 18.7065 10.8289H19.1397V8.21997H20.8722V10.8289H21.4263C22.7962 10.8289 23.8942 11.2721 24.7302 12.1585C25.5663 13.0248 25.9893 14.1832 25.9893 15.6136H24.2568C24.2568 14.6768 23.9949 13.9213 23.4812 13.3572C22.9674 12.7931 22.2825 12.5111 21.4263 12.5111H18.6965C17.7798 12.5111 17.0445 12.7327 16.5006 13.1759C15.9566 13.599 15.6846 14.1832 15.6846 14.9185V16.2985C15.6846 16.8928 15.8861 17.3965 16.289 17.8095C16.7121 18.2225 17.2762 18.4945 18.0014 18.6254L22.3328 19.4413Z" fill="white"/>
</g>
<defs>
<clipPath id="clip0_12140_1025">
<rect width="40" height="40" fill="white"/>
</clipPath>
</defs>
</svg>
