<svg width="40" height="40" viewBox="0 0 40 40" fill="none" xmlns="http://www.w3.org/2000/svg">
<g clip-path="url(#clip0_12140_1083)">
<mask id="mask0_12140_1083" style="mask-type:luminance" maskUnits="userSpaceOnUse" x="0" y="0" width="40" height="40">
<path d="M40 0H0V40H40V0Z" fill="white"/>
</mask>
<g mask="url(#mask0_12140_1083)">
<path d="M20 40C31.0457 40 40 31.0457 40 20C40 8.95431 31.0457 0 20 0C8.95431 0 0 8.95431 0 20C0 31.0457 8.95431 40 20 40Z" fill="#2470FF"/>
<path opacity="0.8" d="M11.6575 23.6398V29.5965C11.6575 29.9633 11.9678 30.1154 12.0644 30.15C12.1609 30.1916 12.485 30.2814 12.7747 30.0117L17.2809 25.6812C17.6646 25.3124 18.035 24.9248 18.3134 24.4713C18.4444 24.2581 18.4986 24.138 18.4986 24.138C18.7746 23.5776 18.7746 23.038 18.5056 22.4982C18.1057 21.6957 17.0849 20.8793 15.547 20.1045L12.9195 21.5712C12.1402 22.014 11.6575 22.7958 11.6575 23.6398Z" fill="white"/>
<path d="M9.06665 10.391V16.6384C9.06665 17.4201 9.59078 18.112 10.3356 18.3333C12.8735 19.0667 17.294 20.6441 18.3631 22.9617C18.5008 23.2661 18.5836 23.5637 18.6113 23.8749C19.3217 22.5812 19.6457 21.0937 19.4941 19.5856C19.2871 17.4477 18.156 15.5037 16.3907 14.2653L10.0942 9.8583C9.98386 9.77527 9.85284 9.73376 9.72181 9.73376C9.61146 9.73376 9.51492 9.75452 9.41148 9.80987C9.20457 9.92748 9.06665 10.142 9.06665 10.391Z" fill="white"/>
<path opacity="0.8" d="M28.4184 23.6398V29.5965C28.4184 29.9633 28.1081 30.1154 28.0114 30.15C27.915 30.1916 27.5906 30.2814 27.3012 30.0117L22.69 25.5805C22.3761 25.2788 22.0764 24.9597 21.84 24.5941C21.6526 24.3046 21.5772 24.138 21.5772 24.138C21.3013 23.5776 21.3013 23.038 21.5701 22.4982C21.9702 21.6957 22.9909 20.8793 24.5286 20.1045L27.1562 21.5712C27.9425 22.014 28.4184 22.7958 28.4184 23.6398Z" fill="white"/>
<path d="M31.0134 10.3905V16.6378C31.0134 17.4197 30.4891 18.1114 29.7443 18.3329C27.2065 19.0662 22.7861 20.6437 21.717 22.9613C21.579 23.2657 21.4962 23.5631 21.4687 23.8745C20.7583 22.5807 20.4343 21.0933 20.5859 19.5851C20.7927 17.4473 21.9238 15.5033 23.6894 14.2649L29.9858 9.85781C30.0962 9.77478 30.2271 9.73328 30.3582 9.73328C30.4685 9.73328 30.5651 9.75404 30.6683 9.80938C30.8754 9.927 31.0134 10.1415 31.0134 10.3905Z" fill="white"/>
</g>
</g>
<defs>
<clipPath id="clip0_12140_1083">
<rect width="40" height="40" fill="white"/>
</clipPath>
</defs>
</svg>
