<svg width="40" height="40" viewBox="0 0 40 40" fill="none" xmlns="http://www.w3.org/2000/svg">
<rect width="40" height="40" rx="20" fill="white"/>
<path d="M19.9992 8.83301C25.5836 8.83301 30.1106 13.36 30.1106 18.9443C30.1106 24.1936 26.1108 28.5082 20.993 29.0073C21.0226 28.6447 21.0161 28.28 20.975 27.9181C20.681 25.3499 18.6566 23.3225 16.089 23.0257V9.63108L16.084 9.61952C17.288 9.11324 18.6111 8.83301 19.9992 8.83301Z" fill="#DEDEDE"/>
<path d="M14.8247 23.0241V10.2665L14.8196 10.2586C15.2255 10.0159 15.648 9.80211 16.0835 9.61938L16.0886 9.63094V23.0256C18.6561 23.3224 20.6813 25.3497 20.9745 27.918C21.0164 28.2798 21.0222 28.6446 20.9926 29.0071C20.6661 29.0389 20.3346 29.0548 19.9995 29.0555C16.4894 29.0555 13.3968 27.2673 11.584 24.5517C12.4629 23.6994 13.6005 23.1621 14.8174 23.0248H14.8247V23.0241Z" fill="#152E51"/>
<path d="M20.9936 29.0072C20.7827 31.6001 18.7647 33.7682 16.0823 34.0752C13.0309 34.424 10.2741 32.2335 9.92527 29.182C9.72088 27.3967 10.3861 25.7117 11.585 24.5518C13.3978 27.2674 16.4904 29.0556 20.0005 29.0556C20.3356 29.0549 20.6664 29.039 20.9936 29.0072Z" fill="#1E4480"/>
<path d="M14.8264 10.2665V23.0241H14.8192C13.6022 23.1613 12.4654 23.6979 11.5857 24.5509C10.5146 22.9461 9.89062 21.0184 9.89062 18.9442C9.89062 15.2535 11.8681 12.0237 14.8221 10.2585L14.8264 10.2665Z" fill="#DEDEDE"/>
</svg>
