<svg width="40" height="40" viewBox="0 0 40 40" fill="none" xmlns="http://www.w3.org/2000/svg">
<g clip-path="url(#clip0_12140_1029)">
<path d="M20 0C31.0496 0 40 8.95039 40 20C40 31.0392 31.0496 40 20 40C8.95039 40 0 31.0392 0 20C0 8.95039 8.95039 0 20 0Z" fill="#2C6EFF"/>
<path d="M20 0.5C30.7735 0.5 39.5 9.22653 39.5 20C39.5 30.7632 30.7733 39.5 20 39.5C9.2267 39.5 0.5 30.7632 0.5 20C0.5 9.22653 9.22653 0.5 20 0.5Z" stroke="white" stroke-opacity="0.3"/>
<path d="M27 17.5975C27 26.705 27.0402 26.6504 18.4282 29.6099L13 31.4737V26.4537L21.9505 23.3782V19.3316L27 17.5975Z" fill="white"/>
<path d="M27 13.5447L18.0472 16.6194V20.6706L13 22.4048C13 13.2952 12.9598 13.3518 21.5718 10.3923L27 8.52625V13.5447Z" fill="white"/>
<path d="M9.2035 30.7965C6.82682 28.4198 5.30079 25.3253 4.86207 21.9929C4.42335 18.6606 5.09648 15.2765 6.77704 12.3657C8.45761 9.4549 11.0517 7.17994 14.157 5.8937C17.2623 4.60745 20.7052 4.38178 23.9518 5.25171" stroke="white" stroke-width="1.5"/>
<path d="M30.7965 9.2035C33.1732 11.5802 34.6992 14.6747 35.1379 18.0071C35.5766 21.3394 34.9035 24.7235 33.223 27.6343C31.5424 30.5451 28.9483 32.8201 25.843 34.1063C22.7377 35.3926 19.2948 35.6182 16.0482 34.7483" stroke="white" stroke-width="1.5"/>
</g>
<defs>
<clipPath id="clip0_12140_1029">
<rect width="40" height="40" fill="white"/>
</clipPath>
</defs>
</svg>
