<svg width="40" height="40" viewBox="0 0 40 40" fill="none" xmlns="http://www.w3.org/2000/svg">
<path d="M20 40C31.0834 40 40 31.0834 40 20C40 8.9166 31.0834 0 20 0C8.9166 0 0 8.9166 0 20C0 31.0834 8.9166 40 20 40Z" fill="#2775CA"/>
<path d="M25.5001 23.1666C25.5001 20.25 23.7501 19.25 20.2501 18.8334C17.7501 18.5 17.2501 17.8334 17.2501 16.6666C17.2501 15.4998 18.0835 14.75 19.7501 14.75C21.2501 14.75 22.0835 15.25 22.5001 16.5C22.5835 16.75 22.8335 16.9166 23.0835 16.9166H24.4167C24.7501 16.9166 25.0001 16.6666 25.0001 16.3334V16.25C24.6667 14.4166 23.1667 13 21.2501 12.8334V10.8334C21.2501 10.5 21.0001 10.25 20.5835 10.1666H19.3335C19.0001 10.1666 18.7501 10.4166 18.6667 10.8334V12.75C16.1667 13.0834 14.5835 14.75 14.5835 16.8334C14.5835 19.5834 16.2501 20.6666 19.7501 21.0834C22.0835 21.5 22.8335 22 22.8335 23.3334C22.8335 24.6668 21.6667 25.5834 20.0835 25.5834C17.9167 25.5834 17.1667 24.6666 16.9167 23.4166C16.8335 23.0834 16.5835 22.9166 16.3335 22.9166H14.9167C14.5835 22.9166 14.3335 23.1666 14.3335 23.5V23.5834C14.6667 25.6666 16.0001 27.1666 18.7501 27.5834V29.5834C18.7501 29.9166 19.0001 30.1666 19.4167 30.25H20.6667C21.0001 30.25 21.2501 30 21.3335 29.5834V27.5834C23.8335 27.1666 25.5001 25.4166 25.5001 23.1666Z" fill="white"/>
<path d="M23.8335 6.25037C23.9167 5.91699 24.2501 5.74984 24.5835 5.91638C29.1667 7.41638 32.8335 11.0004 34.3335 15.7504C36.8332 23.6669 32.5 32.0834 24.5835 34.5834C24.5002 34.6664 24.334 34.6664 24.2505 34.6664C23.9172 34.5832 23.7506 34.3336 23.7505 34.0004V32.8334C23.7505 32.4166 23.9171 32.167 24.2505 32.0004C27.667 30.7503 30.4165 28.0833 31.6665 24.5834C34.0833 18.1667 30.7502 10.9167 24.2505 8.58337C24.0006 8.41664 23.7507 8.08363 23.7505 7.75037V6.58337C23.7505 6.4167 23.7503 6.3337 23.8335 6.25037ZM15.7505 5.83337C16.0837 5.91665 16.2505 6.16707 16.2505 6.50037V7.66638C16.2505 8.08314 16.0838 8.33377 15.7505 8.50037C12.3339 9.75035 9.58352 12.4165 8.33349 15.9164C5.91669 22.3332 9.25048 29.5832 15.7505 31.9164C16.0004 32.0832 16.2504 32.4164 16.2505 32.6664V33.8334C16.2505 34 16.2499 34.0832 16.1665 34.1664C16.0833 34.4998 15.7499 34.667 15.4165 34.5004C10.7501 33.0004 7.16654 29.4168 5.6665 24.7504C3.16652 16.8338 7.50001 8.41645 15.4165 5.91638C15.4999 5.83318 15.6671 5.83337 15.7505 5.83337Z" fill="white"/>
</svg>
