<svg width="40" height="40" viewBox="0 0 40 40" fill="none" xmlns="http://www.w3.org/2000/svg">
<g clip-path="url(#clip0_12140_1005)">
<path d="M20.0047 0.715332C30.662 0.715332 39.2945 9.34792 39.2945 20.0052C39.2945 30.6524 30.662 39.295 20.0047 39.295C9.34743 39.295 0.714844 30.6524 0.714844 20.0052C0.714844 9.34792 9.34743 0.715332 20.0047 0.715332Z" fill="#111111" stroke="#111111" stroke-width="0.710511"/>
<path d="M20.0037 0.362793C9.15508 0.362793 0.361328 9.15655 0.361328 20.0052C0.361328 30.8539 9.15508 39.6476 20.0037 39.6476C30.8524 39.6476 39.6461 30.8539 39.6461 20.0052C39.6461 9.15655 30.8524 0.362793 20.0037 0.362793Z" fill="url(#paint0_radial_12140_1005)" fill-opacity="0.7"/>
<path d="M20.0037 0.362793C9.15508 0.362793 0.361328 9.15655 0.361328 20.0052C0.361328 30.8539 9.15508 39.6476 20.0037 39.6476C30.8524 39.6476 39.6461 30.8539 39.6461 20.0052C39.6461 9.15655 30.8524 0.362793 20.0037 0.362793Z" stroke="url(#paint1_linear_12140_1005)" stroke-width="0.719506"/>
<path fill-rule="evenodd" clip-rule="evenodd" d="M16.8615 3.83801C9.27647 5.2986 3.54492 11.977 3.54492 19.9851C3.54492 27.9931 9.27647 34.6716 16.8615 36.1321V34.591C10.1125 33.1505 5.05588 27.1571 5.05588 19.9851C5.05588 12.8131 10.1125 6.81963 16.8615 5.37919V3.83801ZM23.147 5.38926V3.84809C30.722 5.31875 36.4334 11.9871 36.4334 19.9851C36.4334 27.9831 30.722 34.6514 23.147 36.1221V34.5809C29.8758 33.1304 34.9224 27.147 34.9224 19.9851C34.9224 12.8232 29.8758 6.83978 23.147 5.38926Z" fill="white"/>
<path d="M22.3309 19.4412C23.59 19.683 24.557 20.1463 25.2521 20.8212C25.9471 21.486 26.2896 22.3422 26.2896 23.3798V25.0217C26.2896 26.2707 25.8363 27.278 24.9398 28.0436C24.0433 28.799 22.8547 29.1718 21.3941 29.1718H20.8904V31.7807H19.1579V29.1718H18.624C17.657 29.1718 16.8109 28.9602 16.0655 28.5271C15.3301 28.0839 14.7459 27.4694 14.3329 26.6837C13.93 25.8779 13.7285 24.9612 13.7285 23.9136H15.4611C15.4611 24.9713 15.7532 25.8376 16.3274 26.5024C16.9217 27.1471 17.7074 27.4795 18.6643 27.4795H21.3437C22.2906 27.4795 23.0561 27.2579 23.6404 26.8147C24.2145 26.3513 24.5067 25.757 24.5067 25.0217V23.3798C24.5067 22.7955 24.2851 22.3019 23.8519 21.889C23.4288 21.476 22.8547 21.2141 22.1193 21.0932L17.7779 20.3276C16.559 20.106 15.6021 19.6427 14.9272 18.9476C14.2523 18.2425 13.9098 17.3662 13.9098 16.3085V14.9285C13.9098 13.6794 14.343 12.6923 15.2093 11.9569C16.0957 11.2015 17.2641 10.8288 18.7046 10.8288H19.1377V8.21985H20.8703V10.8288H21.4243C22.7942 10.8288 23.8922 11.272 24.7283 12.1584C25.5643 13.0247 25.9874 14.1831 25.9874 15.6135H24.2548C24.2548 14.6767 23.9929 13.9212 23.4792 13.3571C22.9655 12.793 22.2805 12.511 21.4243 12.511H18.6945C17.7779 12.511 17.0425 12.7326 16.4986 13.1758C15.9547 13.5988 15.6827 14.1831 15.6827 14.9184V16.2984C15.6827 16.8927 15.8841 17.3964 16.2871 17.8094C16.7101 18.2224 17.2742 18.4943 17.9995 18.6253L22.3309 19.4412Z" fill="white"/>
</g>
<defs>
<radialGradient id="paint0_radial_12140_1005" cx="0" cy="0" r="1" gradientUnits="userSpaceOnUse" gradientTransform="translate(20.0424 6.09475) rotate(90) scale(41.4154 29.1523)">
<stop offset="0.03125" stop-color="#3A3A3A"/>
<stop offset="1" stop-color="#1C1C1C"/>
</radialGradient>
<linearGradient id="paint1_linear_12140_1005" x1="20.0012" y1="0.000163937" x2="20.0012" y2="40.0051" gradientUnits="userSpaceOnUse">
<stop stop-color="white"/>
<stop offset="1" stop-color="#111111"/>
</linearGradient>
<clipPath id="clip0_12140_1005">
<rect width="40" height="40" fill="white"/>
</clipPath>
</defs>
</svg>
