<svg width="40" height="40" viewBox="0 0 40 40" fill="none" xmlns="http://www.w3.org/2000/svg">
<path d="M39.3971 24.8381C36.726 35.5525 25.8741 42.0731 15.1584 39.4012C4.44722 36.7301 -2.07335 25.8775 0.598971 15.1639C3.26894 4.44838 14.1209 -2.07268 24.8332 0.598468C35.5481 3.26961 42.0683 14.1234 39.3968 24.8383L39.397 24.8381H39.3971Z" fill="#50AF95"/>
<path fill-rule="evenodd" clip-rule="evenodd" d="M22.5307 22.2674C22.3893 22.278 21.6586 22.3216 20.0288 22.3216C18.7324 22.3216 17.812 22.2827 17.4891 22.2674C12.4794 22.047 8.74007 21.1749 8.74007 20.1308C8.74007 19.0866 12.4794 18.2157 17.4891 17.9918V21.3988C17.8168 21.4224 18.7548 21.4778 20.0512 21.4778C21.6068 21.4778 22.3857 21.413 22.526 21.4V17.9942C27.5251 18.2169 31.2562 19.089 31.2562 20.1308C31.2562 21.1726 27.5263 22.0446 22.526 22.2662L22.5307 22.2674ZM22.5306 17.6418V14.5931H29.5072V9.94397H10.5124V14.5931H17.4879V17.6406C11.8182 17.9011 7.55444 19.0242 7.55444 20.37C7.55444 21.7158 11.8182 22.8378 17.4879 23.0994V32.869H22.5294V23.0959C28.1862 22.8354 32.4429 21.7135 32.4429 20.3688C32.4429 19.0242 28.1897 17.9023 22.5294 17.6406L22.5306 17.6418Z" fill="white"/>
</svg>
