<svg width="1424" height="160" viewBox="0 0 1424 160" fill="none" xmlns="http://www.w3.org/2000/svg">
<g clip-path="url(#clip0_12305_4010)">
<path opacity="0.4" d="M112 -44L-362.075 229.707" stroke="#383E48" stroke-width="1.5"/>
<path opacity="0.4" d="M182 -44L-292.075 229.707" stroke="#383E48" stroke-width="1.5"/>
<path opacity="0.4" d="M252 -44L-222.075 229.707" stroke="#383E48" stroke-width="1.5"/>
<path opacity="0.4" d="M322 -44L-152.075 229.707" stroke="#383E48" stroke-width="1.5"/>
<path opacity="0.4" d="M392 -44L-82.075 229.707" stroke="#383E48" stroke-width="1.5"/>
<path opacity="0.4" d="M462 -44L-12.075 229.707" stroke="#383E48" stroke-width="1.5"/>
<path opacity="0.4" d="M532 -44L57.925 229.707" stroke="#383E48" stroke-width="1.5"/>
<path opacity="0.4" d="M602 -44L127.925 229.707" stroke="#383E48" stroke-width="1.5"/>
<path opacity="0.4" d="M672 -44L197.925 229.707" stroke="#383E48" stroke-width="1.5"/>
<path opacity="0.4" d="M742 -44L267.925 229.707" stroke="#383E48" stroke-width="1.5"/>
<path opacity="0.4" d="M812 -44L337.925 229.707" stroke="#383E48" stroke-width="1.5"/>
<path opacity="0.4" d="M882 -44L407.925 229.707" stroke="#383E48" stroke-width="1.5"/>
<path opacity="0.4" d="M952 -44L477.925 229.707" stroke="#383E48" stroke-width="1.5"/>
<path opacity="0.4" d="M1022 -44L547.925 229.707" stroke="#383E48" stroke-width="1.5"/>
<path opacity="0.4" d="M1092 -44L617.925 229.707" stroke="#383E48" stroke-width="1.5"/>
<path opacity="0.4" d="M1162 -44L687.925 229.707" stroke="#383E48" stroke-width="1.5"/>
<path opacity="0.4" d="M1232 -44L757.925 229.707" stroke="#383E48" stroke-width="1.5"/>
<path opacity="0.4" d="M1302 -44L827.925 229.707" stroke="#383E48" stroke-width="1.5"/>
<path opacity="0.4" d="M1372 -44L897.925 229.707" stroke="#383E48" stroke-width="1.5"/>
<path opacity="0.4" d="M1442 -44L967.925 229.707" stroke="#383E48" stroke-width="1.5"/>
<path opacity="0.4" d="M1512 -44L1037.93 229.707" stroke="#383E48" stroke-width="1.5"/>
<path opacity="0.4" d="M1582 -44L1107.93 229.707" stroke="#383E48" stroke-width="1.5"/>
<path opacity="0.4" d="M1652 -44L1177.93 229.707" stroke="#383E48" stroke-width="1.5"/>
<path opacity="0.4" d="M1722 -44L1247.93 229.707" stroke="#383E48" stroke-width="1.5"/>
<path opacity="0.4" d="M1792 -44L1317.93 229.707" stroke="#383E48" stroke-width="1.5"/>
<path opacity="0.4" d="M1862 -44L1387.93 229.707" stroke="#383E48" stroke-width="1.5"/>
<rect x="708" y="47.4156" width="14.8312" height="14.8312" transform="rotate(-30 708 47.4156)" fill="#383E48"/>
<rect x="468" y="24.4156" width="14.8312" height="14.8312" transform="rotate(-30 468 24.4156)" fill="#383E48"/>
<rect x="408" y="59.4156" width="14.8312" height="14.8312" transform="rotate(-30 408 59.4156)" fill="#383E48"/>
<circle cx="951.089" cy="77.6612" r="11.1234" transform="rotate(30 951.089 77.6612)" stroke="#383E48"/>
<circle cx="951.09" cy="77.6571" r="3.70781" transform="rotate(30 951.09 77.6571)" fill="#004FFF"/>
<circle cx="1091.09" cy="37.6612" r="11.1234" transform="rotate(30 1091.09 37.6612)" stroke="#383E48"/>
<circle cx="1091.09" cy="37.6571" r="3.70781" transform="rotate(30 1091.09 37.6571)" fill="#004FFF"/>
<circle cx="1091.09" cy="117.661" r="11.1234" transform="rotate(30 1091.09 117.661)" stroke="#383E48"/>
<circle cx="1091.09" cy="117.657" r="3.70781" transform="rotate(30 1091.09 117.657)" fill="#004FFF"/>
</g>
<defs>
<clipPath id="clip0_12305_4010">
<rect width="1440" height="204" fill="white" transform="translate(-2 -9)"/>
</clipPath>
</defs>
</svg>
