<svg width="684" height="295" viewBox="0 0 684 295" fill="none" xmlns="http://www.w3.org/2000/svg">
<g clip-path="url(#clip0_12895_21384)">
<g opacity="0.6">
<circle cx="681.406" cy="145.5" r="34.6299" transform="rotate(165 681.406 145.5)" stroke="#383E48" stroke-dasharray="6 6"/>
<circle cx="480.353" cy="199.16" r="34.6299" transform="rotate(165 480.353 199.16)" fill="#383E48"/>
<circle cx="554.353" cy="72.1605" r="34.6299" transform="rotate(165 554.353 72.1605)" fill="#383E48"/>
<circle cx="326.341" cy="26.0062" r="34.6299" transform="rotate(165 326.341 26.0062)" stroke="#383E48" stroke-dasharray="6 6"/>
<circle cx="52.4154" cy="206.477" r="34.6299" transform="rotate(165 52.4154 206.477)" stroke="#383E48" stroke-dasharray="6 6"/>
<rect x="550.001" y="324.128" width="69.2597" height="69.2597" transform="rotate(165 550.001 324.128)" stroke="#383E48"/>
<rect x="623.468" y="196.878" width="69.2597" height="69.2597" transform="rotate(165 623.468 196.878)" stroke="#383E48"/>
<rect x="423.109" y="250.756" width="69.2597" height="69.2597" transform="rotate(165 423.109 250.756)" stroke="#383E48"/>
<rect x="322.422" y="277.539" width="69.2597" height="69.2597" transform="rotate(165 322.422 277.539)" stroke="#383E48"/>
<rect x="569.691" y="-3.82373" width="69.2597" height="69.2597" transform="rotate(165 569.691 -3.82373)" stroke="#383E48"/>
<rect x="469.333" y="23.0679" width="69.2597" height="69.2597" transform="rotate(165 469.333 23.0679)" stroke="#383E48"/>
<rect x="168.294" y="103.729" width="69.2597" height="69.2597" transform="rotate(165 168.294 103.729)" stroke="#383E48"/>
<rect x="67.9434" y="130.62" width="69.2597" height="69.2597" transform="rotate(165 67.9434 130.62)" stroke="#383E48"/>
<rect x="41.0518" y="30.2622" width="69.2597" height="69.2597" transform="rotate(165 41.0518 30.2622)" stroke="#383E48"/>
<rect x="691.241" y="-18.4644" width="103.89" height="103.89" transform="rotate(165 691.241 -18.4644)" stroke="#383E48"/>
<rect x="718.134" y="81.8799" width="103.89" height="103.89" transform="rotate(165 718.134 81.8799)" stroke="#383E48"/>
<rect x="745.024" y="182.238" width="103.89" height="103.89" transform="rotate(165 745.024 182.238)" stroke="#383E48"/>
<rect x="771.909" y="282.582" width="103.89" height="103.89" transform="rotate(165 771.909 282.582)" stroke="#383E48"/>
<rect x="798.801" y="382.926" width="103.89" height="103.89" transform="rotate(165 798.801 382.926)" stroke="#383E48"/>
<rect x="590.897" y="8.42773" width="103.89" height="103.89" transform="rotate(165 590.897 8.42773)" stroke="#383E48"/>
<rect x="617.782" y="108.772" width="103.89" height="103.89" transform="rotate(165 617.782 108.772)" stroke="#383E48"/>
<rect x="644.674" y="209.116" width="103.89" height="103.89" transform="rotate(165 644.674 209.116)" stroke="#383E48"/>
<rect x="671.559" y="309.474" width="103.89" height="103.89" transform="rotate(165 671.559 309.474)" stroke="#383E48"/>
<rect x="490.547" y="35.3052" width="103.89" height="103.89" transform="rotate(165 490.547 35.3052)" stroke="#383E48"/>
<rect x="517.431" y="135.663" width="103.89" height="103.89" transform="rotate(165 517.431 135.663)" stroke="#383E48"/>
<rect x="544.323" y="236.007" width="103.89" height="103.89" transform="rotate(165 544.323 236.007)" stroke="#383E48"/>
<rect x="571.214" y="336.351" width="103.89" height="103.89" transform="rotate(165 571.214 336.351)" stroke="#383E48"/>
<rect x="390.195" y="62.1968" width="103.89" height="103.89" transform="rotate(165 390.195 62.1968)" stroke="#383E48"/>
<rect x="417.088" y="162.541" width="103.89" height="103.89" transform="rotate(165 417.088 162.541)" stroke="#383E48"/>
<rect x="443.972" y="262.899" width="103.89" height="103.89" transform="rotate(165 443.972 262.899)" stroke="#383E48"/>
<rect x="470.863" y="363.243" width="103.89" height="103.89" transform="rotate(165 470.863 363.243)" stroke="#383E48"/>
<rect x="289.845" y="89.0884" width="103.89" height="103.89" transform="rotate(165 289.845 89.0884)" stroke="#383E48"/>
<rect x="316.735" y="189.433" width="103.89" height="103.89" transform="rotate(165 316.735 189.433)" stroke="#383E48"/>
<rect x="343.62" y="289.79" width="103.89" height="103.89" transform="rotate(165 343.62 289.79)" stroke="#383E48"/>
<rect x="370.513" y="390.135" width="103.89" height="103.89" transform="rotate(165 370.513 390.135)" stroke="#383E48"/>
<rect x="162.608" y="15.6221" width="103.89" height="103.89" transform="rotate(165 162.608 15.6221)" stroke="#383E48"/>
<rect x="189.501" y="115.98" width="103.89" height="103.89" transform="rotate(165 189.501 115.98)" stroke="#383E48"/>
<rect x="216.386" y="216.324" width="103.89" height="103.89" transform="rotate(165 216.386 216.324)" stroke="#383E48"/>
<rect x="243.276" y="316.668" width="103.89" height="103.89" transform="rotate(165 243.276 316.668)" stroke="#383E48"/>
<rect x="62.2578" y="42.5137" width="103.89" height="103.89" transform="rotate(165 62.2578 42.5137)" stroke="#383E48"/>
<rect x="89.1504" y="142.857" width="103.89" height="103.89" transform="rotate(165 89.1504 142.857)" stroke="#383E48"/>
<rect x="116.034" y="243.215" width="103.89" height="103.89" transform="rotate(165 116.034 243.215)" stroke="#383E48"/>
<rect x="142.926" y="343.56" width="103.89" height="103.89" transform="rotate(165 142.926 343.56)" stroke="#383E48"/>
<rect x="15.6895" y="270.107" width="103.89" height="103.89" transform="rotate(165 15.6895 270.107)" stroke="#383E48"/>
<rect x="42.5742" y="370.451" width="103.89" height="103.89" transform="rotate(165 42.5742 370.451)" stroke="#383E48"/>
<path fill-rule="evenodd" clip-rule="evenodd" d="M491.383 220.006C500.793 215.507 505.864 204.697 502.935 194.052C500.006 183.408 490.049 176.464 479.571 177.081L480.135 179.13C489.51 178.768 498.331 185.029 500.954 194.562C503.577 204.095 499.14 213.767 490.819 217.958L491.383 220.006ZM482.575 220.064L483.139 222.113C472.67 222.713 462.744 215.776 459.818 205.145C456.893 194.514 461.942 183.724 471.334 179.214L471.898 181.263C463.607 185.46 459.18 195.116 461.799 204.635C464.419 214.155 473.223 220.406 482.575 220.064Z" fill="#1E2021"/>
<path d="M478.159 200.973C476.446 201.063 475.027 200.757 473.879 200.073C472.735 199.403 471.974 198.357 471.587 196.952L470.975 194.728C470.509 193.036 470.717 191.521 471.588 190.186C472.462 188.866 473.855 187.966 475.738 187.481L476.387 187.314L475.414 183.78L477.648 183.205L478.621 186.739L479.309 186.562C480.556 186.241 481.725 186.247 482.848 186.586C483.961 186.942 484.944 187.581 485.769 188.508C486.589 189.466 487.191 190.64 487.581 192.059L485.348 192.635C484.953 191.202 484.254 190.125 483.265 189.415C482.259 188.739 481.122 188.55 479.888 188.868L476.434 189.757C475.213 190.071 474.309 190.625 473.721 191.42C473.154 192.238 472.999 193.14 473.273 194.136L473.885 196.36C474.103 197.151 474.573 197.746 475.286 198.162C475.985 198.581 476.823 198.745 477.816 198.665L483.698 198.261C485.352 198.157 486.759 198.467 487.888 199.184C489.021 199.915 489.79 200.989 490.184 202.421L490.699 204.291C491.165 205.982 490.974 207.463 490.132 208.747C489.271 210.065 487.903 210.957 486.046 211.435L485.488 211.579L486.461 215.113L484.228 215.688L483.254 212.154L482.54 212.338C480.774 212.793 479.193 212.557 477.785 211.634C476.384 210.738 475.407 209.309 474.873 207.371L477.107 206.796C477.456 208.065 478.075 209.002 478.948 209.595C479.821 210.189 480.809 210.344 481.913 210.059L485.432 209.153C486.614 208.849 487.479 208.305 488.015 207.524C488.559 206.77 488.691 205.889 488.417 204.893L487.902 203.023C487.681 202.218 487.233 201.603 486.56 201.177C485.86 200.758 485.032 200.577 484.048 200.64L478.159 200.973Z" fill="#1E2021"/>
<path fill-rule="evenodd" clip-rule="evenodd" d="M564.246 93.0064C573.656 88.5068 578.727 77.6968 575.798 67.0525C572.869 56.4082 562.913 49.4643 552.434 50.0811L552.998 52.1296C562.373 51.7681 571.194 58.0291 573.817 67.5621C576.441 77.0951 572.003 86.767 563.682 90.9579L564.246 93.0064ZM555.438 93.0644L556.002 95.1129C545.533 95.7129 535.607 88.7757 532.682 78.1448C529.756 67.5139 534.805 56.724 544.198 52.2144L544.761 54.263C536.471 58.4604 532.043 68.1155 534.662 77.6352C537.282 87.1548 546.086 93.4058 555.438 93.0644Z" fill="#1E2021"/>
<path d="M551.023 73.9729C549.309 74.0634 547.89 73.7567 546.742 73.0732C545.598 72.4034 544.837 71.3573 544.45 69.9519L543.838 67.7278C543.372 66.0359 543.581 64.521 544.451 63.1864C545.325 61.8655 546.718 60.9662 548.601 60.4814L549.251 60.3142L548.278 56.7803L550.511 56.2052L551.484 59.7391L552.172 59.5619C553.419 59.2409 554.589 59.2466 555.711 59.5859C556.825 59.9422 557.807 60.5806 558.632 61.5078C559.452 62.4656 560.054 63.6404 560.445 65.0595L558.211 65.6345C557.817 64.2018 557.117 63.1254 556.129 62.4154C555.122 61.7394 553.985 61.5499 552.752 61.8676L549.297 62.7569C548.077 63.0712 547.172 63.6255 546.584 64.4198C546.017 65.238 545.862 66.14 546.136 67.136L546.749 69.3601C546.967 70.1515 547.436 70.7465 548.149 71.1621C548.848 71.5811 549.686 71.7453 550.679 71.665L556.562 71.261C558.216 71.1566 559.622 71.4666 560.751 72.1841C561.885 72.9152 562.653 73.9886 563.047 75.4213L563.562 77.2906C564.028 78.9825 563.838 80.4634 562.995 81.747C562.134 83.0646 560.767 83.9572 558.91 84.4353L558.351 84.5791L559.324 88.113L557.091 88.6881L556.118 85.1542L555.404 85.3381C553.637 85.7928 552.057 85.5569 550.648 84.6336C549.247 83.7377 548.27 82.309 547.736 80.3715L549.97 79.7964C550.319 81.0654 550.939 82.0018 551.811 82.5954C552.684 83.1889 553.672 83.3436 554.776 83.0594L558.295 82.1534C559.477 81.8491 560.342 81.3049 560.878 80.524C561.422 79.7703 561.555 78.8887 561.28 77.8926L560.766 76.0233C560.544 75.2183 560.096 74.603 559.423 74.1773C558.723 73.7583 557.895 73.5771 556.911 73.6404L551.023 73.9729Z" fill="#1E2021"/>
<path fill-rule="evenodd" clip-rule="evenodd" d="M691.738 166.006C701.148 161.507 706.219 150.697 703.29 140.052C700.362 129.408 690.405 122.464 679.927 123.081L680.49 125.13C689.865 124.768 698.686 131.029 701.31 140.562C703.933 150.095 699.496 159.767 691.175 163.958L691.738 166.006ZM682.931 166.064L683.494 168.113C673.026 168.713 663.099 161.776 660.174 151.145C657.248 140.514 662.297 129.724 671.69 125.214L672.254 127.263C663.963 131.46 659.535 141.116 662.155 150.635C664.774 160.155 673.579 166.406 682.931 166.064Z" fill="#383E48"/>
<path d="M678.515 146.973C676.801 147.064 675.382 146.757 674.234 146.073C673.09 145.404 672.329 144.357 671.942 142.952L671.33 140.728C670.864 139.036 671.073 137.521 671.943 136.187C672.817 134.866 674.21 133.966 676.093 133.482L676.743 133.314L675.77 129.78L678.003 129.205L678.976 132.739L679.665 132.562C680.911 132.241 682.081 132.247 683.203 132.586C684.317 132.942 685.299 133.581 686.125 134.508C686.945 135.466 687.546 136.641 687.937 138.06L685.703 138.635C685.309 137.202 684.609 136.126 683.621 135.416C682.614 134.74 681.477 134.55 680.244 134.868L676.79 135.757C675.569 136.071 674.665 136.626 674.077 137.42C673.509 138.238 673.354 139.14 673.629 140.136L674.241 142.36C674.459 143.152 674.929 143.747 675.641 144.162C676.341 144.581 677.178 144.746 678.171 144.665L684.054 144.261C685.708 144.157 687.114 144.467 688.244 145.184C689.377 145.915 690.145 146.989 690.54 148.421L691.054 150.291C691.52 151.983 691.33 153.464 690.487 154.747C689.626 156.065 688.259 156.957 686.402 157.436L685.844 157.579L686.817 161.113L684.583 161.688L683.61 158.154L682.896 158.338C681.13 158.793 679.549 158.557 678.14 157.634C676.739 156.738 675.762 155.309 675.229 153.372L677.462 152.797C677.812 154.066 678.431 155.002 679.304 155.596C680.176 156.189 681.165 156.344 682.268 156.06L685.788 155.154C686.969 154.849 687.835 154.305 688.371 153.524C688.914 152.771 689.047 151.889 688.772 150.893L688.258 149.024C688.036 148.219 687.589 147.603 686.915 147.178C686.216 146.759 685.387 146.577 684.403 146.641L678.515 146.973Z" fill="#383E48"/>
<path fill-rule="evenodd" clip-rule="evenodd" d="M336.56 47.0064C345.969 42.5068 351.041 31.6968 348.112 21.0525C345.183 10.4082 335.226 3.46434 324.748 4.08111L325.312 6.12964C334.686 5.76807 343.508 12.0291 346.131 21.5621C348.754 31.0951 344.317 40.767 335.996 44.9579L336.56 47.0064ZM327.752 47.0644L328.316 49.1129C317.847 49.7129 307.92 42.7757 304.995 32.1448C302.07 21.5139 307.118 10.724 316.511 6.21444L317.075 8.26296C308.784 12.4604 304.356 22.1155 306.976 31.6352C309.595 41.1548 318.4 47.4058 327.752 47.0644Z" fill="#383E48"/>
<path d="M323.336 27.9729C321.623 28.0634 320.203 27.7567 319.056 27.0732C317.912 26.4034 317.151 25.3573 316.764 23.9519L316.151 21.7278C315.686 20.0359 315.894 18.521 316.764 17.1864C317.638 15.8655 319.032 14.9662 320.915 14.4814L321.564 14.3142L320.591 10.7803L322.825 10.2052L323.798 13.7391L324.486 13.5619C325.733 13.2409 326.902 13.2466 328.025 13.5859C329.138 13.9422 330.12 14.5806 330.946 15.5078C331.766 16.4656 332.367 17.6404 332.758 19.0595L330.525 19.6345C330.13 18.2018 329.43 17.1254 328.442 16.4154C327.436 15.7394 326.299 15.5499 325.065 15.8676L321.611 16.7569C320.39 17.0712 319.486 17.6255 318.898 18.4198C318.331 19.238 318.176 20.14 318.45 21.136L319.062 23.3601C319.28 24.1515 319.75 24.7465 320.462 25.1621C321.162 25.5811 322 25.7453 322.993 25.665L328.875 25.261C330.529 25.1566 331.936 25.4666 333.065 26.1841C334.198 26.9152 334.966 27.9886 335.361 29.4213L335.876 31.2906C336.341 32.9825 336.151 34.4634 335.309 35.747C334.448 37.0646 333.08 37.9572 331.223 38.4353L330.665 38.5791L331.638 42.113L329.404 42.6881L328.431 39.1542L327.717 39.3381C325.951 39.7928 324.37 39.5569 322.962 38.6336C321.561 37.7377 320.583 36.309 320.05 34.3715L322.283 33.7964C322.633 35.0654 323.252 36.0018 324.125 36.5954C324.998 37.1889 325.986 37.3436 327.09 37.0594L330.609 36.1534C331.791 35.8491 332.656 35.3049 333.192 34.524C333.735 33.7703 333.868 32.8887 333.594 31.8926L333.079 30.0233C332.857 29.2183 332.41 28.603 331.736 28.1773C331.037 27.7583 330.208 27.5771 329.224 27.6404L323.336 27.9729Z" fill="#383E48"/>
</g>
</g>
<defs>
<clipPath id="clip0_12895_21384">
<rect width="684" height="295" fill="white"/>
</clipPath>
</defs>
</svg>
