<svg width="684" height="295" viewBox="0 0 684 295" fill="none" xmlns="http://www.w3.org/2000/svg">
<g clip-path="url(#clip0_12895_23842)">
<g opacity="0.6">
<circle cx="340.354" cy="79.16" r="34.6299" transform="rotate(165 340.354 79.16)" stroke="#383E48" stroke-dasharray="6 6"/>
<circle cx="568.355" cy="125.16" r="34.6299" transform="rotate(165 568.355 125.16)" stroke="#383E48" stroke-dasharray="6 6"/>
<circle cx="-13.7106" cy="-41.3334" r="34.6299" transform="rotate(165 -13.7106 -41.3334)" stroke="#383E48" stroke-dasharray="6 6"/>
<circle cx="140.417" cy="132.477" r="34.6299" transform="rotate(165 140.417 132.477)" stroke="#383E48" stroke-dasharray="6 6"/>
<circle cx="294.551" cy="306.301" r="34.6299" transform="rotate(165 294.551 306.301)" stroke="#383E48" stroke-dasharray="6 6"/>
<rect x="765.246" y="323.566" width="69.2597" height="69.2597" transform="rotate(165 765.246 323.566)" stroke="#383E48"/>
<rect x="638.003" y="250.127" width="69.2597" height="69.2597" transform="rotate(165 638.003 250.127)" stroke="#383E48"/>
<rect x="437.314" y="303.897" width="69.2597" height="69.2597" transform="rotate(165 437.314 303.897)" stroke="#383E48"/>
<rect x="236.612" y="357.68" width="69.2597" height="69.2597" transform="rotate(165 236.612 357.68)" stroke="#383E48"/>
<rect x="711.47" y="122.878" width="69.2597" height="69.2597" transform="rotate(165 711.47 122.878)" stroke="#383E48"/>
<rect x="410.423" y="203.539" width="69.2597" height="69.2597" transform="rotate(165 410.423 203.539)" stroke="#383E48"/>
<rect x="684.578" y="22.5198" width="69.2597" height="69.2597" transform="rotate(165 684.578 22.5198)" stroke="#383E48"/>
<rect x="155.944" y="56.6201" width="69.2597" height="69.2597" transform="rotate(165 155.944 56.6201)" stroke="#383E48"/>
<rect x="55.585" y="83.5115" width="69.2597" height="69.2597" transform="rotate(165 55.585 83.5115)" stroke="#383E48"/>
<rect x="806.136" y="7.87964" width="103.89" height="103.89" transform="rotate(165 806.136 7.87964)" stroke="#383E48"/>
<rect x="705.784" y="34.771" width="103.89" height="103.89" transform="rotate(165 705.784 34.771)" stroke="#383E48"/>
<rect x="732.676" y="135.115" width="103.89" height="103.89" transform="rotate(165 732.676 135.115)" stroke="#383E48"/>
<rect x="759.561" y="235.473" width="103.89" height="103.89" transform="rotate(165 759.561 235.473)" stroke="#383E48"/>
<rect x="786.452" y="335.817" width="103.89" height="103.89" transform="rotate(165 786.452 335.817)" stroke="#383E48"/>
<rect x="605.433" y="61.6626" width="103.89" height="103.89" transform="rotate(165 605.433 61.6626)" stroke="#383E48"/>
<rect x="632.325" y="162.007" width="103.89" height="103.89" transform="rotate(165 632.325 162.007)" stroke="#383E48"/>
<rect x="659.216" y="262.351" width="103.89" height="103.89" transform="rotate(165 659.216 262.351)" stroke="#383E48"/>
<rect x="686.101" y="362.708" width="103.89" height="103.89" transform="rotate(165 686.101 362.708)" stroke="#383E48"/>
<rect x="478.197" y="-11.8037" width="103.89" height="103.89" transform="rotate(165 478.197 -11.8037)" stroke="#383E48"/>
<rect x="505.089" y="88.5405" width="103.89" height="103.89" transform="rotate(165 505.089 88.5405)" stroke="#383E48"/>
<rect x="531.973" y="188.899" width="103.89" height="103.89" transform="rotate(165 531.973 188.899)" stroke="#383E48"/>
<rect x="558.864" y="289.243" width="103.89" height="103.89" transform="rotate(165 558.864 289.243)" stroke="#383E48"/>
<rect x="585.749" y="389.601" width="103.89" height="103.89" transform="rotate(165 585.749 389.601)" stroke="#383E48"/>
<rect x="377.845" y="15.0884" width="103.89" height="103.89" transform="rotate(165 377.845 15.0884)" stroke="#383E48"/>
<rect x="404.736" y="115.432" width="103.89" height="103.89" transform="rotate(165 404.736 115.432)" stroke="#383E48"/>
<rect x="431.623" y="215.79" width="103.89" height="103.89" transform="rotate(165 431.623 215.79)" stroke="#383E48"/>
<rect x="458.514" y="316.134" width="103.89" height="103.89" transform="rotate(165 458.514 316.134)" stroke="#383E48"/>
<rect x="277.501" y="41.9795" width="103.89" height="103.89" transform="rotate(165 277.501 41.9795)" stroke="#383E48"/>
<rect x="304.384" y="142.324" width="103.89" height="103.89" transform="rotate(165 304.384 142.324)" stroke="#383E48"/>
<rect x="331.277" y="242.668" width="103.89" height="103.89" transform="rotate(165 331.277 242.668)" stroke="#383E48"/>
<rect x="358.163" y="343.026" width="103.89" height="103.89" transform="rotate(165 358.163 343.026)" stroke="#383E48"/>
<rect x="177.149" y="68.8574" width="103.89" height="103.89" transform="rotate(165 177.149 68.8574)" stroke="#383E48"/>
<rect x="204.034" y="169.215" width="103.89" height="103.89" transform="rotate(165 204.034 169.215)" stroke="#383E48"/>
<rect x="230.926" y="269.559" width="103.89" height="103.89" transform="rotate(165 230.926 269.559)" stroke="#383E48"/>
<rect x="257.811" y="369.917" width="103.89" height="103.89" transform="rotate(165 257.811 369.917)" stroke="#383E48"/>
<rect x="49.9062" y="-4.59473" width="103.89" height="103.89" transform="rotate(165 49.9062 -4.59473)" stroke="#383E48"/>
<rect x="76.7988" y="95.749" width="103.89" height="103.89" transform="rotate(165 76.7988 95.749)" stroke="#383E48"/>
<rect x="103.69" y="196.107" width="103.89" height="103.89" transform="rotate(165 103.69 196.107)" stroke="#383E48"/>
<rect x="130.575" y="296.451" width="103.89" height="103.89" transform="rotate(165 130.575 296.451)" stroke="#383E48"/>
<path d="M450.317 85.6094C431.843 90.5594 412.854 79.5962 407.904 61.1223C402.954 42.6486 413.917 23.6596 432.391 18.7096C450.865 13.7597 469.854 24.7231 474.804 43.1966C479.754 61.6703 468.79 80.6592 450.317 85.6094ZM453.819 66.3393C460.089 69.4454 464.521 63.7617 465.464 58.0102C466.122 53.9723 465.937 49.9791 464.836 46.0444L464.828 46.0464C463.594 41.6459 461.36 37.3726 458.012 34.1181C454.397 30.5983 448.735 29.3812 445.434 33.9943C441.607 39.3357 443.996 48.7771 436.625 51.3005C429.175 53.8213 426.35 44.8889 420.378 46.4891C415.187 47.8799 415.69 54.6151 416.824 59.1992C417.959 63.7833 422.631 73.2939 428.279 70.4802C433.35 67.9701 431 58.4091 439.469 57.2051C445.958 56.6255 448.705 63.8084 453.819 66.3393Z" fill="#383E48"/>
<path d="M591.836 119.045C592.937 122.979 593.122 126.972 592.464 131.01C591.521 136.761 587.089 142.446 580.819 139.339C575.705 136.808 572.958 129.625 566.469 130.205C557.999 131.409 560.35 140.97 555.279 143.48C549.631 146.294 544.959 136.783 543.825 132.199C542.691 127.615 542.187 120.88 547.377 119.489C553.35 117.889 556.175 126.822 563.625 124.301C570.996 121.777 568.607 112.336 572.434 106.994C575.735 102.381 581.397 103.598 585.012 107.118C588.36 110.372 590.594 114.646 591.828 119.047L591.836 119.045Z" fill="#383E48"/>
<path d="M363.836 73.0446C364.937 76.9793 365.122 80.9719 364.464 85.0099C363.521 90.7615 359.089 96.4455 352.819 93.3394C347.705 90.8085 344.958 83.6252 338.469 84.2048C329.999 85.4087 332.35 94.9701 327.279 97.4802C321.631 100.294 316.959 90.7829 315.825 86.1988C314.691 81.6148 314.187 74.88 319.377 73.4892C325.35 71.8887 328.175 80.8217 335.625 78.3006C342.996 75.7772 340.607 66.3358 344.434 60.9944C347.735 56.3812 353.397 57.5979 357.012 61.1177C360.36 64.3722 362.594 68.6459 363.828 73.0465L363.836 73.0446Z" fill="#383E48"/>
<path d="M504.318 287.61C485.844 292.56 466.855 281.597 461.905 263.123C456.955 244.649 467.918 225.66 486.392 220.71C504.866 215.76 523.855 226.723 528.805 245.197C533.755 263.671 522.792 282.66 504.318 287.61ZM506.819 269.34C513.089 272.446 517.521 266.762 518.464 261.01C519.122 256.972 518.937 252.98 517.836 249.045L517.829 249.047C516.594 244.646 514.361 240.372 511.013 237.118C507.397 233.598 501.735 232.382 498.434 236.995C494.608 242.336 496.996 251.778 489.625 254.301C482.175 256.822 479.35 247.889 473.378 249.49C468.187 250.881 468.691 257.615 469.825 262.199C470.959 266.783 475.631 276.295 481.279 273.481C486.35 270.971 484 261.409 492.468 260.205C498.958 259.625 501.706 266.809 506.819 269.34Z" fill="#383E48"/>
</g>
</g>
<defs>
<clipPath id="clip0_12895_23842">
<rect width="684" height="295" fill="white"/>
</clipPath>
</defs>
</svg>
