<svg width="111" height="28" viewBox="0 0 111 28" fill="none" xmlns="http://www.w3.org/2000/svg">
<path d="M17.0824 11.0685C17.0824 22.1812 17.1315 22.1147 6.62334 25.7257L4.20175e-06 27.9999V21.8746L10.9212 18.122V13.1844L17.0824 11.0685Z" fill="#D0D6D9"/>
<path d="M17.0824 6.12337L6.15843 9.87506V14.8183L4.20175e-06 16.9342C4.20175e-06 5.81893 -0.049067 5.88801 10.4591 2.27697L17.0824 0V6.12337Z" fill="#D0D6D9"/>
<path fill-rule="evenodd" clip-rule="evenodd" d="M69.7949 5.76706C71.1457 5.76709 72.2909 6.0417 73.2311 6.59109C74.1713 7.14054 74.8941 7.80617 75.4013 8.5858L75.5916 6.14498H78.5686V21.8593H75.8444L75.6219 19.0405H75.5272C74.9137 20.0327 74.1023 20.8146 73.0881 21.3838C72.0738 21.953 70.9034 22.24 69.5724 22.24L69.5743 22.2353C68.0749 22.2353 66.7613 21.8761 65.6306 21.1584C64.4999 20.4406 63.6283 19.4585 63.0172 18.2136C62.4036 16.9687 62.0997 15.5624 62.0997 14.0007C62.0997 12.4392 62.4062 11.0335 63.0172 9.78869C63.6284 8.54376 64.5175 7.56078 65.6779 6.84303C66.8383 6.12544 68.2116 5.76706 69.7949 5.76706ZM70.3337 8.45414C69.3218 8.4542 68.4334 8.68695 67.6739 9.1522C66.9144 9.6175 66.3282 10.2665 65.9175 11.1005C65.5068 11.9345 65.2992 12.9025 65.2992 13.9988C65.2992 15.0951 65.5043 16.0578 65.9175 16.8819C66.3281 17.706 66.9145 18.3541 67.6739 18.8293C68.4334 19.3044 69.3218 19.5425 70.3337 19.5425C71.348 19.5425 72.2338 19.3044 72.9934 18.8293C73.753 18.3541 74.3447 17.7061 74.7678 16.8819C75.1909 16.0578 75.4013 15.0976 75.4013 13.9988C75.4013 12.9 75.1909 11.9345 74.7678 11.1005C74.3447 10.2664 73.753 9.6175 72.9934 9.1522C72.2339 8.68707 71.3455 8.45414 70.3337 8.45414Z" fill="#D0D6D9"/>
<path fill-rule="evenodd" clip-rule="evenodd" d="M102.227 5.76706C103.578 5.76709 104.723 6.0417 105.663 6.59109C106.603 7.14054 107.326 7.80617 107.833 8.5858L108.024 6.14498H111.001V21.8593H108.277L108.054 19.0405H107.959C107.346 20.0327 106.534 20.8146 105.52 21.3838C104.506 21.953 103.335 22.24 102.004 22.24L102.006 22.2353C100.507 22.2353 99.1934 21.8761 98.0627 21.1584C96.932 20.4406 96.0604 19.4586 95.4493 18.2136C94.8357 16.9687 94.5318 15.5624 94.5318 14.0007C94.5318 12.4392 94.8383 11.0335 95.4493 9.78869C96.0605 8.54376 96.9496 7.56078 98.11 6.84303C99.2704 6.12544 100.644 5.76706 102.227 5.76706ZM102.766 8.45414C101.754 8.4542 100.866 8.68695 100.106 9.1522C99.3465 9.6175 98.7603 10.2665 98.3496 11.1005C97.9389 11.9345 97.7313 12.9025 97.7313 13.9988C97.7313 15.0951 97.9364 16.0578 98.3496 16.8819C98.7602 17.706 99.3466 18.3541 100.106 18.8293C100.866 19.3044 101.754 19.5425 102.766 19.5425C103.78 19.5425 104.666 19.3044 105.426 18.8293C106.185 18.3541 106.777 17.7061 107.2 16.8819C107.623 16.0578 107.833 15.0976 107.833 13.9988C107.833 12.9 107.623 11.9345 107.2 11.1005C106.777 10.2664 106.185 9.6175 105.426 9.1522C104.666 8.68707 103.778 8.45414 102.766 8.45414Z" fill="#D0D6D9"/>
<path d="M29.8598 5.75664C31.5918 5.75664 32.9999 6.17565 34.0885 7.00973C35.1745 7.84373 35.803 9.04127 35.9737 10.6051H32.9012C32.817 9.84551 32.5049 9.25895 31.9656 8.84816C31.4263 8.43731 30.7134 8.22967 29.8276 8.22967C28.9419 8.22968 28.229 8.41499 27.754 8.78376C27.279 9.15252 27.0419 9.62332 27.0419 10.195C27.042 10.576 27.1731 10.8926 27.4377 11.145C27.7025 11.3974 28.1034 11.6203 28.6402 11.8109C29.1796 12.0014 29.8474 12.2119 30.6514 12.4445C31.6658 12.7192 32.6166 13.0257 33.5024 13.3623C34.3881 13.7014 35.1126 14.1651 35.6717 14.7565C36.2308 15.348 36.5106 16.162 36.5106 17.1964C36.5304 18.1691 36.2882 19.0331 35.7834 19.7954C35.2762 20.5552 34.5581 21.1515 33.6302 21.5846C32.7 22.0176 31.5913 22.2334 30.3048 22.2334V22.2353C28.9961 22.2352 27.8357 22.0124 26.8213 21.5694C25.807 21.1264 24.9957 20.5078 24.3822 19.7158C23.7686 18.9239 23.3897 17.9887 23.2412 16.9123H26.4729C26.5793 17.3972 26.7798 17.8626 27.0741 18.3055C27.3685 18.7484 27.7867 19.1068 28.3259 19.3815C28.8652 19.6562 29.5231 19.7925 30.3048 19.7926C31.0025 19.7926 31.572 19.6865 32.0149 19.4762C32.4577 19.2659 32.7917 18.9959 33.0119 18.6692C33.2346 18.3426 33.3433 17.9787 33.3433 17.5753C33.3433 17.0681 33.1953 16.6622 32.9012 16.3553C32.6043 16.0485 32.1735 15.7905 31.6021 15.5777C31.0331 15.3674 30.355 15.1668 29.5758 14.9763C28.9201 14.7857 28.2614 14.5852 27.5959 14.3748C26.9303 14.1645 26.319 13.8945 25.7599 13.5678C25.2008 13.2412 24.7508 12.823 24.4144 12.3157C24.0754 11.8083 23.9069 11.1746 23.9069 10.4148C23.9069 9.54859 24.1491 8.76129 24.6341 8.0535C25.1189 7.3458 25.807 6.78689 26.6925 6.37608C27.5783 5.96523 28.6351 5.75665 29.8598 5.75664Z" fill="#D0D6D9"/>
<path d="M44.4652 6.14024H50.0177V8.58106H44.4652V19.2877H50.0177V21.8545H46.2397C45.2252 21.8545 44.3485 21.6959 43.6112 21.379C42.8716 21.0623 42.3 20.5352 41.8992 19.7954C41.4984 19.0554 41.298 18.0525 41.298 16.7853V8.58106H37.52V6.14024C41.1225 6.14024 41.3158 5.96443 41.6796 2.37813V2.36108H44.4652V6.14024Z" fill="#D0D6D9"/>
<path d="M61.6045 8.70704H55.7282V21.8545H52.561V11.2094C52.561 9.94222 52.7614 8.93939 53.1622 8.19936C53.563 7.4595 54.1345 6.9325 54.8742 6.61571C55.6114 6.29895 56.4874 6.14028 57.5017 6.14024H61.6045V8.70704Z" fill="#D0D6D9"/>
<path d="M87.8024 6.14024H93.3539V8.58106H87.8024V19.2877H93.3539V21.8545H89.574C88.562 21.8545 87.6853 21.6959 86.9455 21.379C86.206 21.0623 85.6372 20.5351 85.2364 19.7954C84.8331 19.0554 84.6352 18.0525 84.6352 16.7853V8.58106H80.8543V6.14024C84.4568 6.14024 84.6527 5.96443 85.0139 2.37813V2.36108H87.8024V6.14024Z" fill="#D0D6D9"/>
</svg>
