<svg width="16" height="16" viewBox="0 0 16 16" fill="none" xmlns="http://www.w3.org/2000/svg">
<path fill-rule="evenodd" clip-rule="evenodd" d="M8 1C11.866 1 15 4.13401 15 8C15 11.866 11.866 15 8 15C4.13401 15 1 11.866 1 8C1 4.13401 4.13401 1 8 1ZM11.6301 5.71532C11.1921 4.97964 10.3174 4.53143 9.57374 5.14258C8.71205 5.85008 8.68896 7.50257 7.36999 7.59243C6.03818 7.67841 5.9675 6.09007 4.91829 6.09C4.0064 6.09 3.79302 7.21619 3.77761 8.01737C3.76222 8.81853 4.11036 10.5824 5.15958 10.3693C6.10098 10.1806 6.13589 8.51049 7.57691 8.68507C8.66584 8.87518 8.80071 10.1729 9.52756 10.8123C10.4188 11.5968 11.3951 10.8597 11.8023 9.9584C12.0873 9.32549 12.2323 8.66299 12.2246 7.9697H12.2235C12.2145 7.19426 12.0359 6.39576 11.6301 5.71532Z" fill="#88FFD9"/>
</svg>
