<svg width="16" height="16" viewBox="0 0 16 16" fill="none" xmlns="http://www.w3.org/2000/svg">
<path d="M9.47291 9.69804C6.74588 10.4918 4.48995 11.6496 3.07785 13.0062L3.01552 13.0664C3.391 13.4108 3.8028 13.7188 4.24788 13.9807L4.34357 13.8672C4.7292 13.4108 5.14241 12.9699 5.57297 12.554C6.72847 11.4383 8.05066 10.4723 9.47439 9.69662L9.47291 9.69804Z" fill="#FFA339"/>
<path d="M9.47291 9.69804C6.74588 10.4918 4.48995 11.6496 3.07785 13.0062L3.01552 13.0664C3.391 13.4108 3.8028 13.7188 4.24788 13.9807L4.34357 13.8672C4.7292 13.4108 5.14241 12.9699 5.57297 12.554C6.72847 11.4383 8.05066 10.4723 9.47439 9.69662L9.47291 9.69804Z" fill="#FFA339"/>
<path d="M0.786133 8.52201C0.894871 9.9374 1.43709 11.2352 2.28811 12.2908L2.32725 12.253C3.20147 11.4172 4.33956 10.657 5.71252 9.99483C6.9159 9.41385 8.29754 8.91545 9.78649 8.52201H0.786133Z" fill="#FFA339"/>
<path d="M0.786133 8.52201C0.894871 9.9374 1.43709 11.2352 2.28811 12.2908L2.32725 12.253C3.20147 11.4172 4.33956 10.657 5.71252 9.99483C6.9159 9.41385 8.29754 8.91545 9.78649 8.52201H0.786133Z" fill="#FFA339"/>
<path d="M6.33559 2.70506C8.77562 5.06125 11.8463 6.61947 15.2142 7.21026C14.8082 3.71727 11.7404 0.999878 8.01302 0.999878C7.02859 0.999878 6.09055 1.19028 5.23374 1.53327C5.58173 1.93927 5.95284 2.33408 6.33559 2.70506Z" fill="#FFA339"/>
<path d="M6.33559 2.70506C8.77562 5.06125 11.8463 6.61947 15.2142 7.21026C14.8082 3.71727 11.7404 0.999878 8.01302 0.999878C7.02859 0.999878 6.09055 1.19028 5.23374 1.53327C5.58173 1.93927 5.95284 2.33408 6.33559 2.70506Z" fill="#FFA339"/>
<path d="M3.07785 2.99346C4.48995 4.35142 6.74588 5.50787 9.47291 6.30301C8.04925 5.52602 6.72705 4.56142 5.57155 3.44566C5.14241 3.03125 4.7292 2.5902 4.34209 2.13243L4.2464 2.01903C3.80132 2.28083 3.38959 2.58886 3.01552 2.93321L3.07785 2.99346Z" fill="#FFA339"/>
<path d="M3.07785 2.99346C4.48995 4.35142 6.74588 5.50787 9.47291 6.30301C8.04925 5.52602 6.72705 4.56142 5.57155 3.44566C5.14241 3.03125 4.7292 2.5902 4.34209 2.13243L4.2464 2.01903C3.80132 2.28083 3.38959 2.58886 3.01552 2.93321L3.07785 2.99346Z" fill="#FFA339"/>
<path d="M6.33559 13.2947C5.95143 13.6657 5.58025 14.0605 5.23374 14.4665C6.08914 14.8095 7.02859 14.9999 8.01302 14.9999C11.7404 14.9999 14.8082 12.2825 15.2156 8.78812C11.8477 9.37892 8.77704 10.9371 6.33706 13.2933L6.33559 13.2947Z" fill="#FFA339"/>
<path d="M6.33559 13.2947C5.95143 13.6657 5.58025 14.0605 5.23374 14.4665C6.08914 14.8095 7.02859 14.9999 8.01302 14.9999C11.7404 14.9999 14.8082 12.2825 15.2156 8.78812C11.8477 9.37892 8.77704 10.9371 6.33706 13.2933L6.33559 13.2947Z" fill="#FFA339"/>
<path d="M5.71252 6.0048C4.33956 5.3426 3.20147 4.58242 2.32725 3.74659L2.28811 3.7088C1.43709 4.76437 0.894871 6.06223 0.786133 7.47762H9.78502C8.29606 7.08418 6.9159 6.58578 5.71111 6.00339L5.71252 6.0048Z" fill="#FFA339"/>
<path d="M5.71252 6.0048C4.33956 5.3426 3.20147 4.58242 2.32725 3.74659L2.28811 3.7088C1.43709 4.76437 0.894871 6.06223 0.786133 7.47762H9.78502C8.29606 7.08418 6.9159 6.58578 5.71111 6.00339L5.71252 6.0048Z" fill="#FFA339"/>
</svg>
