<svg width="20" height="20" viewBox="0 0 20 20" fill="none" xmlns="http://www.w3.org/2000/svg">
<path d="M2.78288 14.1668C2.42267 13.5429 2.15231 12.8918 1.96777 12.2284C2.77817 11.8149 3.3331 10.9723 3.3331 10.0001C3.3331 9.02871 2.779 8.18662 1.96961 7.7728C2.34187 6.43038 3.04881 5.18018 4.05395 4.1583C4.81725 4.65342 5.82446 4.71274 6.66643 4.22662C7.50841 3.74051 7.96064 2.83858 7.9135 1.92999C9.30108 1.57046 10.7372 1.58332 12.0859 1.93214C12.0396 2.84001 12.4917 3.74089 13.3331 4.22662C14.1751 4.71272 15.1822 4.65342 15.9455 4.15835C16.4277 4.64984 16.8564 5.20955 17.2167 5.83347C17.5768 6.45737 17.8472 7.1085 18.0317 7.77186C17.2213 8.18535 16.6664 9.02796 16.6664 10.0001C16.6664 10.9716 17.2205 11.8136 18.0299 12.2275C17.6577 13.5699 16.9507 14.82 15.9456 15.842C15.1822 15.3469 14.1751 15.2875 13.3331 15.7736C12.4911 16.2597 12.0389 17.1617 12.086 18.0703C10.6985 18.4298 9.26233 18.417 7.91361 18.0681C7.95992 17.1602 7.50774 16.2594 6.66643 15.7736C5.82448 15.2875 4.81732 15.3468 4.05403 15.8419C3.57181 15.3504 3.1431 14.7907 2.78288 14.1668ZM7.49976 14.3303C8.40925 14.8554 9.06242 15.6855 9.37525 16.6382C9.7905 16.6777 10.2085 16.6783 10.6238 16.6395C10.9365 15.6864 11.5898 14.8556 12.4997 14.3303C13.4097 13.8049 14.4558 13.6545 15.4377 13.8603C15.6788 13.52 15.8873 13.1576 16.0607 12.7783C15.3922 12.031 14.9997 11.0503 14.9997 10.0001C14.9997 8.94996 15.3922 7.96929 16.0607 7.22204C15.974 7.03371 15.8782 6.84847 15.7732 6.6668C15.6683 6.48512 15.5558 6.30953 15.4361 6.14031C14.4547 6.34559 13.4092 6.19507 12.4997 5.67C11.5902 5.14492 10.9372 4.31469 10.6242 3.36208C10.2091 3.32258 9.791 3.32201 9.37575 3.36072C9.063 4.31388 8.40966 5.14466 7.49976 5.67C6.58983 6.19535 5.54371 6.34574 4.5619 6.13998C4.32071 6.4803 4.11219 6.8426 3.9388 7.22193C4.60734 7.96922 4.99977 8.94996 4.99977 10.0001C4.99977 11.0503 4.60736 12.031 3.9388 12.7782C4.02556 12.9665 4.12136 13.1518 4.22626 13.3335C4.33116 13.5151 4.44367 13.6907 4.56343 13.86C5.54481 13.6547 6.59031 13.8052 7.49976 14.3303ZM9.99975 12.5001C8.61908 12.5001 7.49976 11.3809 7.49976 10.0001C7.49976 8.61946 8.61908 7.50013 9.99975 7.50013C11.3805 7.50013 12.4997 8.61946 12.4997 10.0001C12.4997 11.3809 11.3805 12.5001 9.99975 12.5001ZM9.99975 10.8335C10.46 10.8335 10.8331 10.4604 10.8331 10.0001C10.8331 9.53988 10.46 9.16679 9.99975 9.16679C9.5395 9.16679 9.16641 9.53988 9.16641 10.0001C9.16641 10.4604 9.5395 10.8335 9.99975 10.8335Z" fill="#D0D6D9"/>
</svg>
