<svg width="975" height="382" viewBox="0 0 975 382" fill="none" xmlns="http://www.w3.org/2000/svg">
<path d="M1338.78 767.03L823.51 -40.3291L203.869 355.137L719.141 1162.5" stroke="#383E48"/>
<path d="M1266.39 655.002L822.874 -39.9231L204.506 354.731L648.02 1049.66L1266.39 655.002Z" fill="#151617"/>
<path d="M373.475 -62.2935C459.128 -116.959 552.366 -141.822 633.855 -137.85C715.345 -133.878 785.042 -101.078 823.725 -40.4669C862.409 20.1444 862.806 97.1732 832.09 172.758C801.374 248.341 739.558 322.436 653.905 377.101C568.252 431.767 475.015 456.629 393.526 452.657C312.035 448.685 242.338 415.885 203.655 355.274C164.972 294.663 164.574 217.634 195.29 142.05C226.006 66.4671 287.822 -7.62812 373.475 -62.2935Z" fill="#151617" stroke="#383E48"/>
<path d="M159.973 383.153C71.6226 244.72 158.365 31.4261 353.717 -93.2515" stroke="#004FFF"/>
<path d="M867.407 -68.3446C903.347 -12.0309 910.313 56.6707 892.78 126.756" stroke="#004FFF"/>
<path d="M447.738 29.6034L464.23 55.4452L472.06 50.4483C490.309 38.8011 507.681 33.869 524.324 35.501L524.33 35.5016C540.664 36.9201 553.411 44.5584 562.358 58.3308L540.032 72.579C534.052 63.4396 525.739 58.2422 515.308 57.0388C504.729 55.8186 493.673 58.9187 482.157 66.2685L445.657 89.5632C433.741 97.1684 425.38 105.412 420.755 114.232L420.319 115.087C415.657 124.047 415.694 132.345 420.453 139.802L429.177 153.471C433.031 159.51 439.063 162.846 447.191 163.509L447.202 163.51C455.576 163.997 464.921 161.847 475.493 156.934L475.494 156.935L538.565 128.054L538.565 128.054C556.886 119.724 572.661 116.092 586.112 116.84L586.116 116.84C599.467 117.487 609.303 122.973 615.766 133.1L626.145 149.363C633.812 161.375 634.246 174.8 627.497 189.626L627.172 190.33C620.014 205.352 606.558 219.123 587.077 231.556L579.921 236.123L596.414 261.965L574.092 276.212L557.599 250.37L550.038 255.195C537.557 263.16 525.355 268.192 513.126 270.369L511.942 270.571C499.384 272.443 487.783 271.345 477.391 267.126C467.154 262.686 458.835 255.532 452.304 245.459L474.629 231.212C481.373 241.55 490.786 247.584 502.655 249.268L502.663 249.27L502.67 249.271C514.83 250.6 527.55 247.144 540.418 238.932L576.244 216.067C588.948 207.959 597.856 199.173 602.92 189.697L602.921 189.697L602.927 189.685C607.731 180.085 607.917 171.51 603.149 164.039L592.77 147.776C588.966 141.817 582.709 138.766 574.192 138.366C565.814 137.881 556.397 140.219 545.76 145.316L545.76 145.315L482.873 174.78L482.873 174.78C465.221 182.964 449.587 186.507 436.286 185.392C422.941 184.178 412.971 178.491 406.379 168.161L397.655 154.492C389.863 142.283 389.404 128.993 396.275 114.452L396.274 114.451C403.298 99.5166 416.484 85.9178 435.694 73.6574L441.908 69.6919L425.415 43.8501L447.738 29.6034Z" fill="#151617" stroke="#383E48"/>
<path d="M440.429 18.152L456.922 43.9938L464.751 38.9969C483.001 27.3497 500.373 22.4175 517.015 24.0495L517.022 24.0502C533.356 25.4687 546.103 33.107 555.049 46.8794L532.724 61.1276C526.743 51.9882 518.431 46.7907 507.999 45.5874C497.42 44.3672 486.364 47.4673 474.848 54.817L438.348 78.1118C426.432 85.717 418.072 93.9608 413.446 102.78L413.011 103.635C408.349 112.595 408.385 120.894 413.144 128.35L421.868 142.019C425.723 148.059 431.754 151.395 439.882 152.058L439.893 152.059C448.267 152.546 457.612 150.396 468.185 145.482L468.185 145.483L531.256 116.602L531.256 116.603C549.577 108.273 565.353 104.641 578.804 105.389L578.807 105.389C592.159 106.036 601.994 111.522 608.457 121.648L618.837 137.911C626.503 149.924 626.938 163.348 620.188 178.174L619.863 178.879C612.706 193.9 599.249 207.671 579.769 220.104L572.613 224.671L589.106 250.514L566.783 264.761L550.29 238.918L542.73 243.743C530.249 251.709 518.046 256.74 505.817 258.918L504.633 259.119C492.076 260.992 480.474 259.894 470.083 255.675C459.846 251.235 451.526 244.081 444.996 234.008L467.32 219.76C474.065 230.099 483.478 236.133 495.346 237.817L495.354 237.819L495.362 237.82C507.522 239.149 520.241 235.693 533.109 227.48L568.935 204.615C581.64 196.507 590.548 187.722 595.611 178.246L595.613 178.246L595.619 178.234C600.422 168.634 600.609 160.059 595.841 152.588L585.461 136.325C581.658 130.365 575.401 127.315 566.884 126.915C558.505 126.429 549.088 128.767 538.451 133.864L538.452 133.864L475.564 163.329L475.565 163.328C457.913 171.513 442.278 175.056 428.977 173.94C415.633 172.727 405.663 167.04 399.07 156.71L390.346 143.041C382.554 130.831 382.096 117.542 388.966 103.001L388.966 103C395.989 88.0652 409.176 74.4664 428.386 62.206L434.599 58.2405L418.107 32.3987L440.429 18.152Z" fill="#151617" stroke="#383E48"/>
<path d="M376.879 36.2905C295.709 108.144 265.496 210.231 310.532 280.796C355.568 351.361 460.884 366.95 560.238 323.588L569.348 337.862C458.933 387.99 341.018 371.302 291.15 293.166C241.282 215.03 275.803 101.052 367.77 22.0172L376.879 36.2905ZM452.814 -32.1192C563.156 -82.0631 680.739 -65.3019 730.544 12.7359C780.35 90.7737 746.032 204.48 654.264 283.526L645.155 269.253C725.993 197.473 756.135 95.5721 711.162 25.1059C666.189 -45.3602 561.071 -60.9368 461.923 -17.8458L452.814 -32.1192Z" fill="#151617" stroke="#383E48"/>
<path d="M369.571 24.8389C288.401 96.6921 258.188 198.779 303.224 269.344C348.26 339.909 453.575 355.498 552.93 312.137L562.04 326.41C451.625 376.539 333.71 359.85 283.842 281.714C233.973 203.578 268.495 89.6005 360.462 10.5655L369.571 24.8389ZM445.505 -43.5708C555.847 -93.5147 673.431 -76.7536 723.236 1.28424C773.041 79.322 738.724 193.028 646.956 272.075L637.847 257.801C718.685 186.021 748.827 84.1204 703.854 13.6543C658.881 -56.8119 553.763 -72.3885 454.615 -29.2974L445.505 -43.5708Z" fill="#151617" stroke="#383E48"/>
<mask id="mask0_12305_3826" style="mask-type:alpha" maskUnits="userSpaceOnUse" x="260" y="-73" width="487" height="429">
<path d="M369.572 24.8389C288.401 96.6921 258.188 198.779 303.224 269.344C348.26 339.909 453.576 355.498 552.931 312.137L562.04 326.41C451.625 376.539 333.71 359.85 283.842 281.714C233.974 203.578 268.496 89.6005 360.462 10.5655L369.572 24.8389ZM445.506 -43.5708C555.848 -93.5147 673.432 -76.7536 723.237 1.28424C773.042 79.322 738.725 193.028 646.957 272.075L637.847 257.801C718.685 186.021 748.827 84.1204 703.855 13.6543C658.882 -56.8119 553.763 -72.3885 454.615 -29.2974L445.506 -43.5708ZM440.43 18.1524L456.922 43.9942L464.752 38.9973C483.002 27.35 500.373 22.418 517.016 24.05L517.022 24.0498C533.356 25.4682 546.103 33.107 555.05 46.8798L532.724 61.1281C526.744 51.9883 518.431 46.7903 507.999 45.587C497.42 44.3669 486.364 47.4668 474.848 54.8167L438.348 78.1114C426.052 85.9592 417.542 94.4873 413.015 103.626C408.349 112.589 408.384 120.891 413.144 128.35L421.869 142.02C425.723 148.059 431.755 151.394 439.882 152.058L439.894 152.058C448.269 152.545 457.615 150.396 468.188 145.482L468.188 145.481L531.256 116.603L531.257 116.603C549.578 108.273 565.354 104.641 578.805 105.389L578.809 105.389C592.16 106.036 601.995 111.521 608.458 121.647L618.838 137.911C626.626 150.114 626.95 163.773 619.863 178.879C612.706 193.9 599.25 207.672 579.769 220.105L572.613 224.672L589.106 250.514L566.783 264.76L550.291 238.919L542.731 243.743C529.847 251.966 517.259 257.061 504.633 259.119C492.076 260.991 480.475 259.893 470.084 255.675L470.083 255.675C459.846 251.235 451.526 244.081 444.996 234.007L467.321 219.759C474.066 230.098 483.478 236.133 495.347 237.818L495.354 237.818L495.363 237.819C507.522 239.148 520.242 235.692 533.109 227.48L568.936 204.615C581.64 196.507 590.549 187.722 595.613 178.246L595.613 178.245L595.619 178.234C600.422 168.633 600.609 160.059 595.841 152.588L585.461 136.324C581.659 130.366 575.404 127.316 566.89 126.915L566.891 126.915C558.51 126.427 549.09 128.766 538.449 133.865L538.448 133.866L475.563 163.329C458.464 171.257 443.258 174.83 430.232 174.031L428.978 173.94C415.634 172.727 405.663 167.04 399.071 156.71L390.347 143.041C382.554 130.832 382.096 117.541 388.966 103L388.967 103C395.99 88.0651 409.177 74.4663 428.387 62.2059L434.6 58.2409L418.107 32.3991L440.43 18.1524Z" fill="#1E2021" stroke="#383E48"/>
</mask>
<g mask="url(#mask0_12305_3826)">
<path d="M-311.072 455.926L1130.61 -464.18" stroke="#383E48"/>
<path d="M-302.952 468.65L1138.73 -451.456" stroke="#383E48"/>
<path d="M-294.832 481.373L1146.85 -438.732" stroke="#383E48"/>
<path d="M-286.711 494.097L1154.97 -426.009" stroke="#383E48"/>
<path d="M-278.591 506.821L1163.09 -413.285" stroke="#383E48"/>
<path d="M-270.471 519.544L1171.21 -400.561" stroke="#383E48"/>
<path d="M-262.35 532.268L1179.33 -387.838" stroke="#383E48"/>
<path d="M-254.229 544.992L1187.45 -375.114" stroke="#383E48"/>
<path d="M-246.109 557.715L1195.57 -362.391" stroke="#383E48"/>
<path d="M-237.989 570.439L1203.69 -349.667" stroke="#383E48"/>
<path d="M-229.868 583.162L1211.81 -336.943" stroke="#383E48"/>
<path d="M-221.748 595.886L1219.93 -324.22" stroke="#383E48"/>
<path d="M-213.627 608.61L1228.05 -311.496" stroke="#383E48"/>
<path d="M-205.506 621.333L1236.17 -298.772" stroke="#383E48"/>
<path d="M-197.386 634.057L1244.29 -286.049" stroke="#383E48"/>
<path d="M-189.266 646.78L1252.41 -273.325" stroke="#383E48"/>
<path d="M-181.146 659.504L1260.53 -260.602" stroke="#383E48"/>
<path d="M-173.025 672.228L1268.65 -247.878" stroke="#383E48"/>
<path d="M-164.904 684.951L1276.77 -235.155" stroke="#383E48"/>
<path d="M-156.784 697.675L1284.89 -222.431" stroke="#383E48"/>
<path d="M-148.664 710.399L1293.01 -209.707" stroke="#383E48"/>
<path d="M-140.543 723.122L1301.13 -196.983" stroke="#383E48"/>
<path d="M-132.423 735.846L1309.26 -184.26" stroke="#383E48"/>
<path d="M-124.302 748.57L1317.38 -171.536" stroke="#383E48"/>
<path d="M-116.181 761.293L1325.5 -158.812" stroke="#383E48"/>
</g>
<circle cx="227.833" cy="80.8322" r="14.388" transform="rotate(22.7462 227.833 80.8322)" stroke="#383E48"/>
<circle cx="227.834" cy="80.8267" r="4.79601" transform="rotate(22.7462 227.834 80.8267)" fill="#004FFF"/>
<circle cx="777.833" cy="264.832" r="14.388" transform="rotate(22.7462 777.833 264.832)" stroke="#383E48"/>
<circle cx="777.834" cy="264.827" r="4.79601" transform="rotate(22.7462 777.834 264.827)" fill="#004FFF"/>
<circle cx="841.833" cy="144.832" r="14.388" transform="rotate(22.7462 841.833 144.832)" stroke="#383E48"/>
<circle cx="841.834" cy="144.827" r="4.79601" transform="rotate(22.7462 841.834 144.827)" fill="#004FFF"/>
<rect x="281" y="267.462" width="12.0581" height="12.0581" transform="rotate(-32.4042 281 267.462)" fill="#383E48"/>
<rect x="397" y="139.462" width="12.0581" height="12.0581" transform="rotate(-32.4042 397 139.462)" fill="#383E48"/>
<rect x="595" y="138.462" width="12.0581" height="12.0581" transform="rotate(-32.4042 595 138.462)" fill="#383E48"/>
</svg>
