<svg width="20" height="20" viewBox="0 0 20 20" fill="none" xmlns="http://www.w3.org/2000/svg">
<path d="M16.0578 4.44171C14.9494 3.92504 13.7494 3.55004 12.4994 3.33337C12.4775 3.33369 12.4565 3.34267 12.4411 3.35837C12.2911 3.63337 12.1161 3.99171 11.9994 4.26671C10.6736 4.06683 9.32529 4.06683 7.99945 4.26671C7.88278 3.98337 7.70778 3.63337 7.54945 3.35837C7.54111 3.34171 7.51611 3.33337 7.49111 3.33337C6.24111 3.55004 5.04945 3.92504 3.93278 4.44171C3.92445 4.44171 3.91611 4.45004 3.90778 4.45837C1.64111 7.85004 1.01611 11.15 1.32445 14.4167C1.32445 14.4334 1.33278 14.45 1.34945 14.4584C2.84945 15.5584 4.29111 16.225 5.71611 16.6667C5.74111 16.675 5.76611 16.6667 5.77445 16.65C6.10778 16.1917 6.40778 15.7084 6.66611 15.2C6.68278 15.1667 6.66611 15.1334 6.63278 15.125C6.15778 14.9417 5.70778 14.725 5.26611 14.475C5.23278 14.4584 5.23278 14.4084 5.25778 14.3834C5.34945 14.3167 5.44111 14.2417 5.53278 14.175C5.54945 14.1584 5.57445 14.1584 5.59111 14.1667C8.45778 15.475 11.5494 15.475 14.3828 14.1667C14.3994 14.1584 14.4244 14.1584 14.4411 14.175C14.5328 14.25 14.6244 14.3167 14.7161 14.3917C14.7494 14.4167 14.7494 14.4667 14.7078 14.4834C14.2744 14.7417 13.8161 14.95 13.3411 15.1334C13.3078 15.1417 13.2994 15.1834 13.3078 15.2084C13.5744 15.7167 13.8744 16.2 14.1994 16.6584C14.2244 16.6667 14.2494 16.675 14.2744 16.6667C15.7078 16.225 17.1494 15.5584 18.6494 14.4584C18.6661 14.45 18.6744 14.4334 18.6744 14.4167C19.0411 10.6417 18.0661 7.36671 16.0911 4.45837C16.0828 4.45004 16.0744 4.44171 16.0578 4.44171ZM7.09945 12.425C6.24111 12.425 5.52445 11.6334 5.52445 10.6584C5.52445 9.68337 6.22445 8.89171 7.09945 8.89171C7.98278 8.89171 8.68278 9.69171 8.67445 10.6584C8.67445 11.6334 7.97445 12.425 7.09945 12.425ZM12.9078 12.425C12.0494 12.425 11.3328 11.6334 11.3328 10.6584C11.3328 9.68337 12.0328 8.89171 12.9078 8.89171C13.7911 8.89171 14.4911 9.69171 14.4828 10.6584C14.4828 11.6334 13.7911 12.425 12.9078 12.425Z" fill="white"/>
</svg>
