<svg width="20" height="20" viewBox="0 0 20 20" fill="none" xmlns="http://www.w3.org/2000/svg">
<path d="M10.3638 2.26685C9.9063 2.26685 9.48923 2.50801 8.6565 2.98821L4.09497 5.61689C3.30936 6.06047 2.65468 6.70346 2.197 7.48095C1.73933 8.25843 1.49486 9.1429 1.48828 10.0451L1.48828 10.2125C1.49491 11.1135 1.73882 11.9968 2.19543 12.7736C2.65205 13.5503 3.30526 14.1931 4.0893 14.6371L6.94283 16.2848C8.61253 17.2495 9.44738 17.7332 10.3645 17.7332C11.2809 17.7339 12.1165 17.2523 13.7869 16.2877L16.8021 14.5477C17.637 14.0654 18.0534 13.8242 18.2825 13.4277C18.5116 13.0305 18.5123 12.5482 18.5116 11.5836V9.71808C18.5117 9.58866 18.4778 9.46148 18.4133 9.3493C18.3487 9.23713 18.2558 9.14392 18.1438 9.07902C18.0318 9.01412 17.9048 8.97982 17.7753 8.97957C17.6459 8.97932 17.5187 9.01312 17.4065 9.07758L11.2157 12.6411C10.7993 12.8802 10.5915 13.0007 10.3638 13.0007C10.1347 13.0007 9.92687 12.8816 9.5098 12.6418L5.32207 10.2352C5.1114 10.1139 5.00572 10.0536 4.92131 10.0429C4.82804 10.0306 4.73333 10.0496 4.65196 10.0968C4.5706 10.144 4.50718 10.2169 4.47161 10.304C4.43969 10.3827 4.43969 10.504 4.44111 10.7473C4.44253 10.926 4.44111 11.0154 4.45885 11.0977C4.49644 11.2814 4.5929 11.4474 4.73335 11.5708C4.79647 11.6254 4.87379 11.6701 5.02842 11.7595L9.50767 14.3484C9.92545 14.5896 10.1347 14.7102 10.3638 14.7102C10.5929 14.7102 10.8014 14.5896 11.2192 14.3491L16.7092 11.1792C16.8525 11.097 16.9234 11.0572 16.9766 11.087C17.0298 11.1182 17.0298 11.2005 17.0298 11.3651V12.2113C17.0298 12.4524 17.0305 12.573 16.9731 12.6716C16.9163 12.7709 16.8121 12.8305 16.6028 12.9511L12.0761 15.5649C11.2405 16.0472 10.8227 16.2884 10.3645 16.2884C9.9063 16.2884 9.48781 16.0472 8.65367 15.5635L4.41912 13.1149L4.38862 13.0972C3.95222 12.8421 3.58984 12.4777 3.33722 12.0399C3.0846 11.602 2.95046 11.1059 2.94803 10.6005V9.78759C2.94823 9.50834 3.02171 9.23404 3.16111 8.99207C3.30052 8.7501 3.50097 8.54895 3.74245 8.40871C3.95605 8.28507 4.19847 8.21991 4.44527 8.21979C4.69208 8.21966 4.93456 8.28458 5.14829 8.408L8.6565 10.4352C9.48923 10.9168 9.9063 11.158 10.3638 11.1587C10.8213 11.1587 11.2384 10.9175 12.0732 10.4373L17.3802 7.38305C17.4981 7.3152 17.596 7.21748 17.6641 7.09974C17.7321 6.982 17.768 6.84841 17.768 6.71241C17.768 6.57641 17.7321 6.44281 17.6641 6.32507C17.596 6.20733 17.4981 6.10962 17.3802 6.04176L12.0711 2.98537C11.2377 2.50659 10.8213 2.26685 10.3645 2.26685H10.3638Z" fill="white"/>
</svg>
