<svg width="20" height="20" viewBox="0 0 20 20" fill="none" xmlns="http://www.w3.org/2000/svg">
<path d="M10.0006 1.66663C8.90622 1.66663 7.82259 1.88217 6.81154 2.30096C5.80049 2.71975 4.88183 3.33358 4.10801 4.1074C2.54521 5.67021 1.66724 7.78982 1.66724 9.99996C1.66724 13.6833 4.0589 16.8083 7.36724 17.9166C7.7839 17.9833 7.91724 17.725 7.91724 17.5V16.0916C5.6089 16.5916 5.11724 14.975 5.11724 14.975C4.7339 14.0083 4.19224 13.75 4.19224 13.75C3.4339 13.2333 4.25057 13.25 4.25057 13.25C5.0839 13.3083 5.52557 14.1083 5.52557 14.1083C6.25057 15.375 7.47557 15 7.95057 14.8C8.02557 14.2583 8.24224 13.8916 8.47557 13.6833C6.62557 13.475 4.6839 12.7583 4.6839 9.58329C4.6839 8.65829 5.00057 7.91663 5.54224 7.32496C5.4589 7.11663 5.16724 6.24996 5.62557 5.12496C5.62557 5.12496 6.32557 4.89996 7.91724 5.97496C8.57557 5.79163 9.29224 5.69996 10.0006 5.69996C10.7089 5.69996 11.4256 5.79163 12.0839 5.97496C13.6756 4.89996 14.3756 5.12496 14.3756 5.12496C14.8339 6.24996 14.5422 7.11663 14.4589 7.32496C15.0006 7.91663 15.3172 8.65829 15.3172 9.58329C15.3172 12.7666 13.3672 13.4666 11.5089 13.675C11.8089 13.9333 12.0839 14.4416 12.0839 15.2166V17.5C12.0839 17.725 12.2172 17.9916 12.6422 17.9166C15.9506 16.8 18.3339 13.6833 18.3339 9.99996C18.3339 8.90561 18.1184 7.82198 17.6996 6.81093C17.2808 5.79988 16.6669 4.88122 15.8931 4.1074C15.1193 3.33358 14.2006 2.71975 13.1896 2.30096C12.1786 1.88217 11.0949 1.66663 10.0006 1.66663Z" fill="white"/>
</svg>
